<svg width="53" height="44" viewBox="0 0 53 44" fill="none" xmlns="http://www.w3.org/2000/svg">
<path d="M26.2931 26.8125C27.8305 26.8125 29.305 26.3055 30.3921 25.403C31.4793 24.5004 32.09 23.2764 32.09 22C32.09 21.8591 32.0822 21.7194 32.0677 21.5815L25.789 26.794C25.9551 26.8061 26.1228 26.8125 26.2931 26.8125ZM45.4808 7.11392L43.2697 5.28001C43.192 5.2156 43.0868 5.17941 42.977 5.17941C42.8672 5.17941 42.7619 5.2156 42.6843 5.28001L37.0261 9.97865C33.9048 8.65435 30.3961 7.9922 26.5001 7.9922C16.5523 7.9922 9.13022 12.2934 4.23394 20.8957C4.03713 21.2417 3.93506 21.6196 3.93506 22.0022C3.93506 22.3848 4.03713 22.7626 4.23394 23.1086C6.19038 26.5298 8.54622 29.2719 11.3015 31.335L5.82601 35.8789C5.74841 35.9434 5.70483 36.0308 5.70483 36.1219C5.70483 36.213 5.74841 36.3004 5.82601 36.3649L8.03555 38.1992C8.11319 38.2636 8.21847 38.2998 8.32824 38.2998C8.43801 38.2998 8.54328 38.2636 8.62093 38.1992L45.4808 7.60033C45.5193 7.5684 45.5498 7.53049 45.5706 7.48876C45.5915 7.44703 45.6022 7.4023 45.6022 7.35712C45.6022 7.31195 45.5915 7.26722 45.5706 7.22549C45.5498 7.18376 45.5193 7.14585 45.4808 7.11392ZM17.1837 22C17.1836 20.6938 17.591 19.4098 18.3662 18.2731C19.1415 17.1365 20.2581 16.1859 21.6074 15.514C22.9567 14.8421 24.4927 14.4718 26.0656 14.4392C27.6385 14.4066 29.1948 14.7127 30.5828 15.3278L28.0663 17.417C27.0515 17.1472 25.9667 17.1147 24.9311 17.3231C23.8954 17.5314 22.9489 17.9726 22.1954 18.5981C21.4419 19.2237 20.9105 20.0095 20.6595 20.8692C20.4085 21.729 20.4477 22.6296 20.7726 23.4721L18.2562 25.5613C17.55 24.4659 17.1815 23.2424 17.1837 22V22Z" fill="#8B8B8B"/>
<path d="M48.766 20.8914C46.9441 17.706 44.7756 15.1085 42.2606 13.099L34.8002 19.293C35.4291 20.6577 35.5685 22.1445 35.2015 23.5736C34.8346 25.0027 33.977 26.313 32.7325 27.3462C31.4879 28.3794 29.9096 29.0914 28.1882 29.396C26.4668 29.7006 24.6759 29.5849 23.032 29.0628L16.7041 34.3161C19.6398 35.4439 22.905 36.0078 26.4998 36.0078C36.4476 36.0078 43.8697 31.7067 48.766 23.1043C48.9628 22.7583 49.0649 22.3805 49.0649 21.9979C49.0649 21.6152 48.9628 21.2374 48.766 20.8914V20.8914Z" fill="#8B8B8B"/>
</svg>
